<?xml version="1.0" encoding="UTF-8"?>
<svg width="209px" height="128px" viewBox="0 0 209 128" version="1.1" xmlns="http://www.w3.org/2000/svg" xmlns:xlink="http://www.w3.org/1999/xlink">
    <!-- Generator: Sketch 50.2 (55047) - http://www.bohemiancoding.com/sketch -->
    <title>Logo</title>
    <desc>Created with Sketch.</desc>
    <defs></defs>
    <g id="Welcome" stroke="none" stroke-width="1" fill="none" fill-rule="evenodd">
        <g id="Logo">
            <path d="M115.3584,32.3545 L115.3584,34.9795 C121.6034,34.9795 124.7254,37.7145 124.7254,43.1815 L103.1984,106.1765 L79.8634,40.7205 C79.8634,38.7525 80.6294,37.3325 82.1644,36.4565 C83.6974,35.5825 85.9974,35.1435 89.0654,35.1435 L89.0654,32.3545 L54.5574,32.3545 L54.5574,35.1435 C57.9514,35.1435 60.6914,35.9105 62.7734,37.4405 C64.7454,38.8625 66.3884,41.5415 67.7034,45.4785 L69.5624,50.7595 L69.5694,50.7405 L72.8494,59.7495 L97.9404,127.6675 L100.8984,127.6675 L127.3554,54.1725 C130.0914,47.0655 132.5564,42.2535 134.7494,39.7365 C136.2824,38.2065 137.7604,37.0575 139.1864,36.2925 C140.6094,35.5275 142.1984,35.1435 143.9524,35.1435 L143.9524,32.3545 L115.3584,32.3545 Z" id="Fill-4" fill="#E10000"></path>
            <path d="M49.8085,106.1309 L49.7915,106.1769 L26.6215,41.2129 C26.6215,39.4649 27.2785,38.0959 28.5935,37.1119 C30.0155,36.1279 32.0975,35.4719 34.8375,35.1439 L34.8375,32.3549 L-0.0005,32.3549 L-0.0005,35.1439 C2.5185,35.1439 4.7655,35.4169 6.7375,35.9629 C8.3805,36.4019 9.8035,37.6599 11.0095,39.7359 C12.5425,41.4869 14.1855,44.9329 15.9395,50.0719 L44.6975,127.6669 L47.3265,127.6669 L52.5365,113.1929 L49.8085,106.1309 Z" id="Fill-1" fill="#E10000"></path>
            <path d="M16.1572,28.7441 C16.1572,28.0701 15.8632,27.4661 15.4022,27.0391 C15.8632,26.6111 16.1572,26.0081 16.1572,25.3341 C16.1572,24.0501 15.1072,23.0001 13.8242,23.0001 L6.2852,23.0001 C5.0022,23.0001 3.9522,24.0501 3.9522,25.3341 C3.9522,26.0081 4.2462,26.6111 4.7072,27.0391 C4.2462,27.4661 3.9522,28.0701 3.9522,28.7441 C3.9522,29.4681 4.2932,30.1101 4.8152,30.5391 C4.2932,30.9681 3.9522,31.6091 3.9522,32.3341 C3.9522,33.6171 5.0022,34.6671 6.2852,34.6671 L13.8242,34.6671 C15.1072,34.6671 16.1572,33.6171 16.1572,32.3341 C16.1572,31.6091 15.8162,30.9681 15.2942,30.5391 C15.8162,30.1101 16.1572,29.4681 16.1572,28.7441" id="Fill-13" fill="#333333"></path>
            <path d="M31.1572,28.7441 C31.1572,28.0701 30.8632,27.4661 30.4022,27.0391 C30.8632,26.6111 31.1572,26.0081 31.1572,25.3341 C31.1572,24.0501 30.1072,23.0001 28.8242,23.0001 L21.2852,23.0001 C20.0022,23.0001 18.9522,24.0501 18.9522,25.3341 C18.9522,26.0081 19.2462,26.6111 19.7072,27.0391 C19.2462,27.4661 18.9522,28.0701 18.9522,28.7441 C18.9522,29.4681 19.2932,30.1101 19.8152,30.5391 C19.2932,30.9681 18.9522,31.6091 18.9522,32.3341 C18.9522,33.6171 20.0022,34.6671 21.2852,34.6671 L28.8242,34.6671 C30.1072,34.6671 31.1572,33.6171 31.1572,32.3341 C31.1572,31.6091 30.8162,30.9681 30.2942,30.5391 C30.8162,30.1101 31.1572,29.4681 31.1572,28.7441" id="Fill-15" fill="#333333"></path>
            <path d="M129.1572,28.7441 C129.1572,28.0701 128.8632,27.4661 128.4022,27.0391 C128.8632,26.6111 129.1572,26.0081 129.1572,25.3341 C129.1572,24.0501 128.1072,23.0001 126.8242,23.0001 L119.2852,23.0001 C118.0022,23.0001 116.9522,24.0501 116.9522,25.3341 C116.9522,26.0081 117.2462,26.6111 117.7072,27.0391 C117.2462,27.4661 116.9522,28.0701 116.9522,28.7441 C116.9522,29.4681 117.2932,30.1101 117.8152,30.5391 C117.2932,30.9681 116.9522,31.6091 116.9522,32.3341 C116.9522,33.6171 118.0022,34.6671 119.2852,34.6671 L126.8242,34.6671 C128.1072,34.6671 129.1572,33.6171 129.1572,32.3341 C129.1572,31.6091 128.8162,30.9681 128.2942,30.5391 C128.8162,30.1101 129.1572,29.4681 129.1572,28.7441" id="Fill-17" fill="#333333"></path>
            <path d="M144.1572,28.7441 C144.1572,28.0701 143.8632,27.4661 143.4022,27.0391 C143.8632,26.6111 144.1572,26.0081 144.1572,25.3341 C144.1572,24.0501 143.1072,23.0001 141.8242,23.0001 L134.2852,23.0001 C133.0022,23.0001 131.9522,24.0501 131.9522,25.3341 C131.9522,26.0081 132.2462,26.6111 132.7072,27.0391 C132.2462,27.4661 131.9522,28.0701 131.9522,28.7441 C131.9522,29.4681 132.2932,30.1101 132.8152,30.5391 C132.2932,30.9681 131.9522,31.6091 131.9522,32.3341 C131.9522,33.6171 133.0022,34.6671 134.2852,34.6671 L141.8242,34.6671 C143.1072,34.6671 144.1572,33.6171 144.1572,32.3341 C144.1572,31.6091 143.8162,30.9681 143.2942,30.5391 C143.8162,30.1101 144.1572,29.4681 144.1572,28.7441" id="Fill-19" fill="#333333"></path>
            <path d="M24.9521,34.3174 C24.9521,34.3174 72.8551,96.9474 128.9521,7.6674" id="Stroke-21" stroke="#333333" stroke-width="2"></path>
            <path d="M122.9521,27.667 C122.9521,27.667 151.0491,74.667 183.9521,7.667" id="Stroke-23" stroke="#333333" stroke-width="2"></path>
            <path d="M137.9521,28.21 C137.9521,28.21 166.0491,76.487 198.9521,7.667" id="Stroke-25" stroke="#333333" stroke-width="2"></path>
            <path d="M9.9521,32.8731 C9.9521,32.8731 57.8551,96.8071 113.9521,5.6671" id="Stroke-27" stroke="#333333" stroke-width="2"></path>
            <path d="M205.7998,33.0606 C204.6008,27.5116 202.3998,23.3846 199.1998,20.6756 C195.8658,17.9696 190.1318,16.6156 181.9998,16.6156 L164.6008,16.6156 L164.6008,105.9466 C164.6008,112.9856 165.4658,117.6546 167.1998,119.9556 C168.7998,122.5286 172.0658,123.8126 176.9998,123.8126 L176.9998,127.2636 L136.3998,127.2636 L136.3998,123.8126 C139.3308,123.8126 141.6648,123.4066 143.3998,122.5936 C145.2658,121.7826 146.7318,119.8216 147.7998,116.7066 C148.8658,113.4566 149.3998,109.6706 149.3998,105.3356 L149.3998,16.6156 L132.7998,16.6156 C124.7998,16.6156 119.0658,17.9026 115.6008,20.4726 C113.7318,21.5576 112.2658,23.2476 111.1998,25.5476 C109.9998,27.7146 109.3998,30.2876 109.3998,33.2626 L105.9998,33.2626 L105.9998,6.6666 L109.3998,6.6666 C111.3998,7.6156 113.6648,8.4946 116.1998,9.3056 C119.6648,10.3906 123.1318,10.9306 126.6008,10.9306 L189.3998,10.9306 C192.9998,10.9306 195.9998,10.5936 198.3998,9.9146 C200.6648,9.3756 202.7998,8.2906 204.7998,6.6666 L208.3998,6.6666 L208.3998,33.2626 L205.7998,33.0606 Z" id="Fill-29" fill="#E10000"></path>
            <path d="M122.1572,5.7441 C122.1572,5.0701 121.8632,4.4661 121.4022,4.0391 C121.8632,3.6111 122.1572,3.0081 122.1572,2.3341 C122.1572,1.0501 121.1072,0.0001 119.8242,0.0001 L112.2852,0.0001 C111.0022,0.0001 109.9522,1.0501 109.9522,2.3341 C109.9522,3.0081 110.2462,3.6111 110.7072,4.0391 C110.2462,4.4661 109.9522,5.0701 109.9522,5.7441 C109.9522,6.4681 110.2932,7.1101 110.8152,7.5391 C110.2932,7.9681 109.9522,8.6091 109.9522,9.3341 C109.9522,10.6171 111.0022,11.6671 112.2852,11.6671 L119.8242,11.6671 C121.1072,11.6671 122.1572,10.6171 122.1572,9.3341 C122.1572,8.6091 121.8162,7.9681 121.2942,7.5391 C121.8162,7.1101 122.1572,6.4681 122.1572,5.7441" id="Fill-32" fill="#333333"></path>
            <path d="M137.1572,5.7441 C137.1572,5.0701 136.8632,4.4661 136.4022,4.0391 C136.8632,3.6111 137.1572,3.0081 137.1572,2.3341 C137.1572,1.0501 136.1072,0.0001 134.8242,0.0001 L127.2852,0.0001 C126.0022,0.0001 124.9522,1.0501 124.9522,2.3341 C124.9522,3.0081 125.2462,3.6111 125.7072,4.0391 C125.2462,4.4661 124.9522,5.0701 124.9522,5.7441 C124.9522,6.4681 125.2932,7.1101 125.8152,7.5391 C125.2932,7.9681 124.9522,8.6091 124.9522,9.3341 C124.9522,10.6171 126.0022,11.6671 127.2852,11.6671 L134.8242,11.6671 C136.1072,11.6671 137.1572,10.6171 137.1572,9.3341 C137.1572,8.6091 136.8162,7.9681 136.2942,7.5391 C136.8162,7.1101 137.1572,6.4681 137.1572,5.7441" id="Fill-34" fill="#333333"></path>
            <path d="M190.1572,5.7441 C190.1572,5.0701 189.8632,4.4661 189.4022,4.0391 C189.8632,3.6111 190.1572,3.0081 190.1572,2.3341 C190.1572,1.0501 189.1072,0.0001 187.8242,0.0001 L180.2852,0.0001 C179.0022,0.0001 177.9522,1.0501 177.9522,2.3341 C177.9522,3.0081 178.2462,3.6111 178.7072,4.0391 C178.2462,4.4661 177.9522,5.0701 177.9522,5.7441 C177.9522,6.4681 178.2932,7.1101 178.8152,7.5391 C178.2932,7.9681 177.9522,8.6091 177.9522,9.3341 C177.9522,10.6171 179.0022,11.6671 180.2852,11.6671 L187.8242,11.6671 C189.1072,11.6671 190.1572,10.6171 190.1572,9.3341 C190.1572,8.6091 189.8162,7.9681 189.2942,7.5391 C189.8162,7.1101 190.1572,6.4681 190.1572,5.7441" id="Fill-36" fill="#333333"></path>
            <path d="M205.1572,5.7441 C205.1572,5.0701 204.8632,4.4661 204.4022,4.0391 C204.8632,3.6111 205.1572,3.0081 205.1572,2.3341 C205.1572,1.0501 204.1072,0.0001 202.8242,0.0001 L195.2852,0.0001 C194.0022,0.0001 192.9522,1.0501 192.9522,2.3341 C192.9522,3.0081 193.2462,3.6111 193.7072,4.0391 C193.2462,4.4661 192.9522,5.0701 192.9522,5.7441 C192.9522,6.4681 193.2932,7.1101 193.8152,7.5391 C193.2932,7.9681 192.9522,8.6091 192.9522,9.3341 C192.9522,10.6171 194.0022,11.6671 195.2852,11.6671 L202.8242,11.6671 C204.1072,11.6671 205.1572,10.6171 205.1572,9.3341 C205.1572,8.6091 204.8162,7.9681 204.2942,7.5391 C204.8162,7.1101 205.1572,6.4681 205.1572,5.7441" id="Fill-38" fill="#333333"></path>
        </g>
    </g>
</svg>